PathFileType	4	(X/Y/Z)	walk-thru1-2-TP.trc
DataRate	CameraRate	NumFrames	NumMarkers	Units	OrigDataRate	OrigDataStartFrame	OrigNumFrames
120.00	120.00	       5	60	mm	120.00	56	       441
Frame#	Time	Top.Head			Front.Head			Rear.Head			Jaw			C7			R.Clavicle			L.Clavicle			R.Shoulder			L.Shoulder			R.Scapula			L.Scapula			R.Scap.Inf			R.Biceps.Lateral			R.Elbow			R.Elbow.Medial			R.Forearm			R.Ulna			R.Radius			R.Wrist			R.Thumb.M1			R.Thumb.M2			R.Thumb.M3			R.Finger3.M1			R.Finger3.M2			R.Finger3.M3			L.Biceps.Lateral			L.Elbow			L.Elbow.Medial			L.Forearm			L.Ulna			L.Radius			L.Wrist			L.Thumb.M1			L.Thumb.M2			L.Thumb.M3			L.Finger3.M1			L.Finger3.M2			L.Finger3.M3			V.Sacral			R.ASIS			L.ASIS			R.Thigh			R.Thigh.Front			R.Knee			R.Knee.Medial			R.Shank			R.Ankle			R.Ankle.Medial			R.Heel			R.Toe			R.MedFoot			L.Thigh			L.Knee			L.Knee.Medial			L.Shank			L.Ankle			L.Ankle.Medial			L.Heel			L.Toe			L.MedFoot			V_mid_ASIS			V_R_Knee_JC			V_L_Knee_JC			V_R_Elbow_JC			V_L_Elbow_JC			V_R_Ankle_JC			V_L_Ankle_JC			V_R_Wrist_JC			V_L_Wrist_JC			V_R_ScaTrpz_1stMC_JC			V_R_1stMC_1stPP_JC			V_R_1stPP_1stDP_JC			V_R_LunCap_3rdMC_JC			V_R_3rdMC_3rdPP_JC			V_R_3rdPP_3rdMP_JC			V_R_3rdMP_3rdDP_JC			V_L_ScaTrpz_1stMC_JC			V_L_1stMC_1stPP_JC			V_L_1stPP_1stDP_JC			V_L_LunCap_3rdMC_JC			V_L_3rdMC_3rdPP_JC			V_L_3rdPP_3rdMP_JC			V_L_3rdMP_3rdPP_JC			V_ROOT_JC			V_R_Hip_JC			V_L_Hip_JC			V_R_GlenHum_JC			V_L_GlenHum_JC			V_ForeHead_Ctr			V_Vertex			V_Sagit_Lambdoid_Suture			V_R_FrontoTemp			V_L_FrontoTemporal			V_R_ParietalOccip			V_L_ParietalOcciptal			V_R_Temporal			V_L_Temporal			V_mid_FrontRearHead			V_mid_RLGlenHumCtrs			V_C7_vert			V_C1_vert			V_Mid_Hip			
		X1	Y1	Z1	X2	Y2	Z2	X3	Y3	Z3	X4	Y4	Z4	X5	Y5	Z5	X6	Y6	Z6	X7	Y7	Z7	X8	Y8	Z8	X9	Y9	Z9	X10	Y10	Z10	X11	Y11	Z11	X12	Y12	Z12	X13	Y13	Z13	X14	Y14	Z14	X15	Y15	Z15	X16	Y16	Z16	X17	Y17	Z17	X18	Y18	Z18	X19	Y19	Z19	X20	Y20	Z20	X21	Y21	Z21	X22	Y22	Z22	X23	Y23	Z23	X24	Y24	Z24	X25	Y25	Z25	X26	Y26	Z26	X27	Y27	Z27	X28	Y28	Z28	X29	Y29	Z29	X30	Y30	Z30	X31	Y31	Z31	X32	Y32	Z32	X33	Y33	Z33	X34	Y34	Z34	X35	Y35	Z35	X36	Y36	Z36	X37	Y37	Z37	X38	Y38	Z38	X39	Y39	Z39	X40	Y40	Z40	X41	Y41	Z41	X42	Y42	Z42	X43	Y43	Z43	X44	Y44	Z44	X45	Y45	Z45	X46	Y46	Z46	X47	Y47	Z47	X48	Y48	Z48	X49	Y49	Z49	X50	Y50	Z50	X51	Y51	Z51	X52	Y52	Z52	X53	Y53	Z53	X54	Y54	Z54	X55	Y55	Z55	X56	Y56	Z56	X57	Y57	Z57	X58	Y58	Z58	X59	Y59	Z59	X60	Y60	Z60	

56	0.458	-903.24286	51.47646	1566.73267	-798.54706	47.72732	1469.30823	-1013.37164	49.88778	1482.23560	-825.34497	35.47332	1327.27771	-1026.15649	30.22137	1371.69092	-943.20959	-78.69666	1281.81287	-927.82996	138.15193	1291.81616	-993.20758	-154.90274	1277.74707	-981.18268	230.14799	1291.98853	-1073.84607	-55.02127	1293.97241	-1074.39893	127.82043	1296.87585	-1119.10168	-36.24109	1212.62854	-969.47748	-207.98119	1135.87793	-999.56573	-230.50584	974.76300	-1029.00720	-160.93033	955.97070	-918.35236	-221.09970	903.73932	-941.85168	-246.95561	817.54437	-875.03241	-199.39180	774.48517	-874.77570	-241.60239	741.81158	-848.19708	-200.21886	723.54791	-837.43488	-181.65723	689.77075	-830.87689	-171.79738	649.11414	-852.93866	-252.24065	665.96301	-853.45410	-231.28830	615.86676	-864.89795	-212.87735	582.95300	-1003.42950	291.90512	1149.28674	-1054.85596	302.13947	1005.40643	-1074.08105	222.97531	997.81213	-970.42609	288.61081	940.49609	-984.68768	324.48029	847.58972	-929.05579	271.71088	806.75647	-924.42175	320.21634	779.72369	-898.76453	279.92218	771.42157	-886.88403	256.44434	733.05182	-882.73602	247.29744	682.74005	-897.28577	320.87292	693.89648	-895.30389	306.30807	654.74603	-903.92151	270.45447	624.66815	-1132.42603	35.75325	906.91418	-933.38904	-113.30656	969.27020	-954.07794	206.89380	953.73853	-916.95905	-135.85780	580.75000	-851.26654	-56.85243	497.29309	-895.86713	-93.62282	444.83716	-896.80383	18.35980	440.36145	-911.72858	-37.15844	271.49600	-1000.74933	-54.88942	64.28461	-985.25153	36.46327	80.96830	-1061.25757	-0.27417	40.84208	-859.27423	-32.64084	38.69565	-916.34900	12.61226	63.56014	-918.27759	245.01799	579.94012	-887.57288	225.96278	438.22845	-870.41626	104.53001	420.08179	-997.77472	154.03415	271.71335	-1167.93726	172.67108	158.55154	-1147.36292	83.33865	173.75507	-1227.58862	126.69930	181.21948	-1085.10449	115.77414	49.40567	-1103.56238	93.50446	102.78029																																																																																																																															
57	0.467	-897.49304	51.91446	1565.95361	-793.14893	47.91977	1469.47449	-1007.02112	49.33678	1481.82422	-819.74005	35.44083	1326.89575	-1020.42261	29.39389	1372.40210	-936.25891	-78.01324	1281.51611	-921.89825	138.04593	1291.52173	-986.89612	-155.27222	1277.02405	-975.55914	230.57985	1291.89893	-1068.17297	-54.27168	1293.95264	-1068.11414	126.76144	1296.80518	-1113.93201	-36.57790	1213.06848	-962.83484	-208.95815	1136.26563	-990.66663	-231.07957	974.77612	-1022.36768	-162.20718	956.93799	-909.87653	-221.59479	904.66443	-931.54327	-247.10341	818.49182	-864.39661	-200.69890	776.03479	-863.38153	-241.90685	741.73938	-837.96234	-199.25734	725.30371	-825.73950	-184.09050	691.27893	-818.53632	-171.54889	650.80951	-841.34833	-253.00327	667.59619	-840.43500	-233.34128	617.93787	-852.48322	-212.73970	583.77222	-998.57178	291.54868	1149.25500	-1049.06360	301.78915	1005.87213	-1067.87976	222.18724	997.14197	-964.43268	288.40640	940.67902	-978.93604	325.15457	847.36664	-923.15332	270.89499	807.31732	-920.44440	319.87701	779.89227	-890.85919	280.86319	770.87683	-880.18768	256.77469	732.84015	-875.99353	247.68207	682.39844	-891.92651	321.62543	694.62579	-889.04364	306.39267	655.14569	-897.45801	270.57544	624.52472	-1127.04871	36.20911	907.15704	-928.18982	-114.04739	969.98730	-950.03082	206.88702	953.79260	-912.33850	-137.31195	580.95105	-848.55457	-57.63755	496.42334	-894.02936	-93.82811	444.23077	-896.17590	17.51116	439.96533	-910.66791	-37.22563	270.42447	-1000.74933	-54.88942	64.28461	-985.09290	36.61969	80.82153	-1061.25757	-0.27417	40.84208	-859.39740	-32.46673	38.38229	-916.34900	12.61226	63.56014	-907.94055	244.00742	579.65411	-874.58624	225.03281	438.74896	-859.20251	103.12041	421.54733	-983.02429	153.79907	271.48117	-1150.98865	172.08501	154.27773	-1130.35413	82.83121	171.21742	-1210.70032	126.09279	174.54999	-1064.15942	116.25381	48.95182	-1084.39148	93.24591	101.28071																																																																																																																															
58	0.475	-890.81763	51.47218	1565.44922	-786.61597	48.31454	1468.84192	-1000.55750	49.60094	1482.34131	-813.26202	35.29785	1326.18359	-1014.12744	30.52503	1372.70630	-930.37842	-77.35840	1281.32703	-916.27063	137.82669	1291.04956	-979.51324	-155.64769	1277.05505	-970.91797	229.04884	1292.63452	-1061.14380	-54.76298	1293.53149	-1062.78857	127.39110	1297.45532	-1107.48242	-37.12463	1213.60168	-955.43823	-208.05711	1136.17664	-981.78009	-232.59200	974.89386	-1013.45343	-164.32494	956.85333	-900.30603	-221.11421	905.36511	-922.24146	-247.99838	819.22540	-853.71631	-199.60271	777.08191	-853.99695	-242.11476	743.93457	-827.12195	-201.24930	726.63580	-814.55225	-183.21519	692.70221	-807.34033	-172.90355	652.00824	-829.92651	-252.96298	669.56677	-827.00818	-233.94328	619.10870	-839.96008	-213.59518	584.60400	-992.50256	292.60623	1148.75916	-1043.65820	302.23721	1005.66125	-1062.37207	222.74579	997.02032	-958.63098	288.68057	940.35052	-974.07117	324.41891	847.78442	-916.21252	271.99124	807.11115	-912.40320	320.74026	780.72925	-885.31006	280.43692	770.75824	-873.56433	257.01102	733.38226	-869.35583	247.79185	682.77722	-885.61615	321.48752	694.88391	-882.77179	307.21799	654.59570	-891.76270	270.91714	624.57129	-1121.20703	36.14326	906.71521	-922.63049	-113.53073	969.50238	-943.84344	207.25217	953.93066	-907.49615	-135.67719	580.94336	-846.12030	-56.04773	495.28629	-891.67957	-93.15224	443.87918	-893.16650	18.62256	438.87112	-908.72705	-37.77522	270.19583	-1000.78357	-54.80951	64.33684	-985.04755	36.91891	80.90359	-1061.25757	-0.27417	40.84208	-859.47406	-32.63999	38.40512	-916.52820	12.46984	63.52634	-897.92993	242.21509	581.08246	-863.07764	224.20102	440.52820	-847.48035	102.28990	422.91315	-967.59326	153.35536	270.91919	-1132.18958	172.92638	148.88547	-1112.97241	83.13791	166.37715	-1194.82007	125.12630	168.04958	-1041.01379	117.94762	48.59906	-1063.99963	94.08230	98.75237																																																																																																																															
59	0.483	-884.07037	51.55920	1565.48486	-780.75702	47.95851	1468.09705	-994.60150	49.20760	1481.93811	-807.14270	34.95604	1326.77637	-1009.03271	29.53485	1372.06409	-924.26404	-77.68912	1281.63574	-910.02777	137.72589	1291.13904	-974.56763	-156.69965	1276.59326	-963.42719	229.56155	1291.96448	-1055.81042	-54.64605	1294.04468	-1056.79626	126.95346	1297.28467	-1101.75757	-37.91532	1213.21265	-948.64740	-208.40985	1136.36206	-973.68536	-232.20851	974.41766	-1006.37860	-164.36278	956.74512	-891.42059	-222.81808	906.16840	-911.12549	-248.88554	819.21326	-843.46844	-200.27997	778.43066	-842.66907	-241.53024	744.87982	-816.61182	-201.24800	728.43530	-803.10217	-182.24481	695.10980	-795.93982	-171.97586	652.77338	-818.01276	-252.59502	671.17633	-816.90784	-232.17261	621.05927	-827.84344	-213.25861	585.80823	-986.88660	292.02658	1148.37207	-1037.76709	302.36276	1005.29218	-1056.46655	222.57048	996.70441	-953.23169	289.53723	940.62640	-967.88080	323.82529	847.58923	-910.80969	271.24756	807.55853	-907.47699	320.86578	779.44250	-879.78265	278.97821	770.33435	-866.69647	258.01447	733.55792	-862.14093	248.17001	682.96320	-879.62097	321.81863	694.81445	-875.66400	307.17755	655.49854	-885.19769	270.09470	625.14453	-1115.74170	37.26325	906.99805	-917.17908	-113.79827	968.99524	-937.32172	206.78470	953.49329	-904.34961	-135.45750	580.84637	-843.43909	-56.29547	494.04498	-889.81598	-93.19460	442.59628	-888.25891	18.78525	438.42560	-908.01788	-39.15275	269.63754	-999.87122	-54.69304	64.53658	-985.02362	37.01141	80.73548	-1061.22729	0.23335	40.66639	-859.18750	-32.93451	38.45985	-916.56671	12.73767	63.08471	-887.94928	241.89317	582.40729	-850.79926	222.81488	441.50201	-835.97626	101.07738	424.51816	-952.33960	153.06471	269.83392	-1114.35339	172.51613	144.55481	-1092.89697	84.14105	161.86264	-1177.33545	125.76205	160.28580	-1018.41602	118.71280	47.79737	-1042.99023	94.90564	96.30408																																																																																																																															
60	0.492	-878.10712	52.27876	1565.93567	-774.41534	48.52436	1467.93115	-987.44452	49.30465	1482.20618	-801.17328	34.18839	1325.85425	-1002.57385	30.03655	1371.80518	-918.65320	-77.91321	1281.19678	-903.48010	136.41426	1290.75574	-968.10931	-155.38597	1276.63464	-958.02795	229.07802	1291.27051	-1049.14832	-54.38942	1293.91016	-1051.08118	126.60670	1297.32532	-1096.18225	-38.20459	1213.28748	-941.92584	-208.65491	1136.46960	-965.70471	-234.60846	974.51141	-997.10876	-165.63344	956.84906	-882.12622	-222.29849	906.50336	-901.08899	-248.82111	820.21259	-834.96484	-201.08080	779.88727	-832.43079	-241.83954	745.89471	-805.85889	-199.96133	729.70013	-791.59344	-183.87003	696.55865	-784.56067	-172.08047	655.99591	-806.05597	-252.53870	672.30975	-803.64679	-233.87303	622.17175	-815.35388	-213.50101	586.87549	-980.10162	291.14722	1148.32629	-1031.60779	300.97812	1004.63116	-1050.36401	221.76082	995.72949	-947.27258	288.98038	940.16461	-961.15295	323.55280	847.41620	-903.25598	271.56354	807.64264	-900.43616	320.92560	779.61426	-874.88586	278.88702	770.30731	-861.06439	259.16608	733.40387	-855.46521	247.95758	683.29865	-872.23639	321.64377	695.33026	-869.21521	306.96030	655.86902	-879.31079	271.36899	624.30408	-1110.61926	37.90757	907.13586	-912.50061	-114.22212	969.20544	-931.94843	207.18410	954.54907	-900.52570	-135.06952	580.15857	-840.65137	-56.33245	493.27371	-887.01379	-93.93192	442.32898	-890.99146	20.03734	437.14310	-906.13428	-40.48640	268.49164	-1000.78357	-54.80951	64.33684	-984.10199	37.39493	80.88453	-1061.20337	0.21318	40.77525	-859.15356	-33.02649	38.42716	-916.32623	12.83884	63.03364	-877.44647	241.50348	582.80377	-839.20593	221.14343	443.65723	-824.74072	98.97092	425.30490	-937.45447	153.65628	269.18790	-1096.06738	173.04044	139.67911	-1076.80322	83.35363	156.58788	-1160.11963	125.55641	153.00905	-995.34894	120.01534	47.09625	-1022.00928	96.01682	95.03253																																																																																																																															
